<?xml version="1.0" encoding="UTF-8"?>
<svg version="1.1" xmlns="http://www.w3.org/2000/svg" width="1024" height="1024">
<path d="M0 0 C0.48259277 0.46728516 0.96518555 0.93457031 1.46240234 1.41601562 C2.56084761 2.47829383 3.66600046 3.53365737 4.77587891 4.58398438 C34.51665502 32.76851162 56.74263972 71.09041447 58.3359375 112.76171875 C59.1373804 146.99510307 49.66136208 181.16711577 28.79370117 208.89697266 C26.86281086 213.9473682 29.52964713 220.05295135 31.0234375 224.99609375 C31.43528455 226.38040294 31.8463832 227.76493495 32.25683594 229.1496582 C32.47287476 229.87448395 32.68891357 230.59930969 32.91149902 231.34609985 C44.84518174 271.62635251 52.45011172 312.89134271 55.84375 354.77020264 C56.03429488 357.102591 56.23179886 359.43433694 56.4296875 361.76611328 C62.8319444 437.90680305 62.8319444 437.90680305 47.01953125 468.921875 C46.7167627 469.52580078 46.41399414 470.12972656 46.10205078 470.75195312 C41.25881916 480.25894245 35.12672688 488.03873962 28.01953125 495.921875 C26.80330078 497.30246094 26.80330078 497.30246094 25.5625 498.7109375 C17.95209247 507.29371396 10.03668155 514.82040801 1.01953125 521.921875 C0.42946289 522.38835449 -0.16060547 522.85483398 -0.76855469 523.33544922 C-19.17184506 537.81960831 -38.54254556 550.87477792 -58.38427734 563.29443359 C-60.87589397 564.85632154 -63.36105997 566.4278762 -65.84375 568.00390625 C-70.5479015 570.98949516 -75.26124661 573.9601696 -79.98046875 576.921875 C-80.78210449 577.42509277 -81.58374023 577.92831055 -82.40966797 578.44677734 C-172.04685815 634.60053933 -264.87861734 679.19328948 -389.91796875 682.109375 C-391.26684677 682.10846863 -391.26684677 682.10846863 -392.64297485 682.10754395 C-459.96078013 681.98635579 -551.86107319 676.74584728 -602.98046875 626.921875 C-603.86734375 626.07625 -604.75421875 625.230625 -605.66796875 624.359375 C-606.43109375 623.555 -607.19421875 622.750625 -607.98046875 621.921875 C-608.48707031 621.42171875 -608.99367188 620.9215625 -609.515625 620.40625 C-631.62805279 597.23605231 -632.1387023 565.06444257 -632.1484375 535.0234375 C-632.15166123 532.66539491 -632.15502609 530.3073525 -632.15852356 527.9493103 C-632.16449826 523.00184672 -632.16636571 518.05440053 -632.16577148 513.10693359 C-632.16569098 508.11340655 -632.17251195 503.11997272 -632.1862793 498.12646484 C-632.26534589 468.99763776 -632.0859483 439.98400825 -629.98046875 410.921875 C-629.90476654 409.87161133 -629.82906433 408.82134766 -629.75106812 407.73925781 C-629.3294632 402.1028943 -628.81462615 396.48101393 -628.23046875 390.859375 C-628.14776733 390.03944061 -628.06506592 389.21950623 -627.9798584 388.37472534 C-625.38729146 362.75607044 -622.07914064 337.19949075 -617.81640625 311.8046875 C-617.63295654 310.7019902 -617.44950684 309.59929291 -617.26049805 308.46318054 C-616.37401044 303.14418172 -615.46793382 297.83021491 -614.52050781 292.52172852 C-609.19226872 261.70033872 -613.68933308 239.88122754 -626.37207031 211.84570312 C-636.19677734 190.12792969 -636.19677734 190.12792969 -639.54296875 179.546875 C-639.77008545 178.82935059 -639.99720215 178.11182617 -640.23120117 177.37255859 C-648.01535453 151.36084054 -645.73246724 122.89066725 -632.98046875 98.921875 C-627.71619642 89.76516402 -621.01216433 81.75494818 -613.98046875 73.921875 C-613.26246094 73.11878906 -612.54445313 72.31570313 -611.8046875 71.48828125 C-601.93127626 61.05705017 -589.37015956 53.02602603 -576.98046875 45.921875 C-576.32046875 45.54111816 -575.66046875 45.16036133 -574.98046875 44.76806641 C-544.31392857 27.23341651 -512.14503062 11.96016804 -479.82678223 -2.26403809 C-478.03488959 -3.05412946 -476.24543088 -3.8497337 -474.45605469 -4.64550781 C-403.04316022 -36.38232739 -327.51203132 -69.46165583 -248.98046875 -77.078125 C-248.27277344 -77.14870117 -247.56507813 -77.21927734 -246.8359375 -77.29199219 C-162.0409812 -85.32117392 -62.67426939 -59.33049852 0 0 Z " fill="#E9A758" transform="translate(792.98046875,208.078125)"/>
<path d="M0 0 C1.10866425 0.00182281 2.21732849 0.00364563 3.35958862 0.00552368 C19.97156897 0.05153776 36.28028951 0.47079948 52.6875 3.3125 C54.2667627 3.58586182 54.2667627 3.58586182 55.87792969 3.86474609 C63.18849043 5.17121686 70.44405298 6.67652284 77.6875 8.3125 C78.54859375 8.50569824 79.4096875 8.69889648 80.296875 8.89794922 C101.36813808 13.70607352 122.27892393 19.70777571 141.6875 29.3125 C142.48365723 29.69712402 143.27981445 30.08174805 144.10009766 30.47802734 C186.58852475 51.12375421 227.18682497 82.14070153 243.58984375 127.90234375 C251.04125687 151.05210763 251.73182801 176.20510704 243.6875 199.3125 C243.42469238 200.10172852 243.16188477 200.89095703 242.89111328 201.70410156 C238.47312567 214.71480043 231.96219918 226.26278526 224.859375 237.984375 C223.8003553 239.75938682 222.74290395 241.53533592 221.6875 243.3125 C221.0387793 244.3653418 221.0387793 244.3653418 220.37695312 245.43945312 C216.67484351 251.93929056 216.70730488 257.61174203 218.60546875 264.77832031 C219.63444077 268.1357999 220.77271648 271.45286359 221.93182373 274.76733398 C230.84522347 300.36501116 237.15394785 326.59071581 241.6875 353.3125 C241.80380768 353.9962973 241.92011536 354.6800946 242.03994751 355.38461304 C244.06220927 367.38650674 245.59238814 379.38549483 246.75 391.5 C246.83399048 392.3641452 246.91798096 393.22829041 247.0045166 394.11862183 C248.31175206 407.6880658 249.26417719 421.25983347 249.9375 434.875 C249.99902756 436.10118546 249.99902756 436.10118546 250.0617981 437.35214233 C251.60141581 468.7908099 251.60141581 468.7908099 248.6875 480.3125 C248.44257812 481.3025 248.19765625 482.2925 247.9453125 483.3125 C244.03203563 497.44185364 237.49703043 509.43671626 227.6875 520.3125 C227.0790625 521.03953125 226.470625 521.7665625 225.84375 522.515625 C221.83283237 527.29226327 217.48395342 531.33786881 212.6875 535.3125 C212.17670898 535.74626953 211.66591797 536.18003906 211.13964844 536.62695312 C192.28851281 552.62511848 171.45086054 565.96268032 150.6875 579.3125 C149.66333984 579.97282227 148.63917969 580.63314453 147.58398438 581.31347656 C133.37985364 590.46851697 119.10108981 599.49091991 104.6875 608.3125 C103.64287598 608.95268066 102.59825195 609.59286133 101.52197266 610.25244141 C87.0002999 619.14174787 72.40327741 627.89036595 57.69018555 636.45947266 C52.63568776 639.40434453 47.58616965 642.35177022 42.6015625 645.4140625 C41.5328894 646.06955078 41.5328894 646.06955078 40.44262695 646.73828125 C38.67208479 647.83126895 36.90794889 648.93461699 35.14453125 650.0390625 C34.33371094 650.45929687 33.52289062 650.87953125 32.6875 651.3125 C32.0275 650.9825 31.3675 650.6525 30.6875 650.3125 C31.00912109 649.76537354 31.33074219 649.21824707 31.66210938 648.65454102 C44.96143975 625.9427566 54.95927992 604.34039381 59.6875 578.3125 C59.86700195 577.434729 60.04650391 576.55695801 60.23144531 575.65258789 C62.27911781 564.51585031 62.08486775 553.28685268 62.0625 542 C62.06162384 540.92769135 62.06074768 539.85538269 62.05984497 538.75057983 C61.99610242 515.16384997 59.20246573 494.43304979 50.6875 472.3125 C50.41566895 471.59658691 50.14383789 470.88067383 49.86376953 470.14306641 C43.77296961 454.39948621 34.89021402 439.92562765 23.6875 427.3125 C22.97078125 426.46429687 22.2540625 425.61609375 21.515625 424.7421875 C12.91940745 414.77423311 2.50905179 406.22327589 -9.3125 400.3125 C-7.93717585 397.11262522 -6.46904689 395.39777239 -3.75 393.25 C18.32521183 374.436351 32.39558894 343.24949313 35.44140625 314.76953125 C36.56912115 297.6059583 36.85113138 280.0887024 32.6875 263.3125 C32.40543701 262.14944336 32.40543701 262.14944336 32.11767578 260.96289062 C27.22738685 241.463982 18.64816999 223.45515247 6.6875 207.3125 C6.02878906 206.41144531 5.37007812 205.51039063 4.69140625 204.58203125 C-14.78321966 179.48899474 -40.68300197 160.60586238 -69.3125 147.3125 C-70.13540527 146.92594238 -70.95831055 146.53938477 -71.80615234 146.14111328 C-127.0117151 120.43019074 -189.46452283 111.20195551 -249.87890625 108.80078125 C-250.94604355 108.75832779 -252.01318085 108.71587433 -253.11265564 108.6721344 C-265.53006451 108.19964676 -277.951015 107.9694101 -290.375 107.75 C-292.71810349 107.70662424 -295.06120249 107.66300536 -297.40429688 107.61914062 C-303.04031628 107.5141428 -308.67638232 107.41207564 -314.3125 107.3125 C-311.85632791 105.39175614 -309.51374186 103.80008008 -306.68188477 102.49755859 C-305.9793306 102.17160706 -305.27677643 101.84565552 -304.55293274 101.50982666 C-303.794254 101.16369324 -303.03557526 100.81755981 -302.25390625 100.4609375 C-301.4501506 100.08966736 -300.64639496 99.71839722 -299.81828308 99.33587646 C-297.17260517 98.11517104 -294.52386512 96.90127192 -291.875 95.6875 C-290.02293185 94.83486382 -288.17104609 93.98183134 -286.31933594 93.12841797 C-282.51311966 91.37522253 -278.70560075 89.62490281 -274.89697266 87.87695312 C-269.72390745 85.50253369 -264.55482996 83.11955325 -259.38671875 80.734375 C-250.37042752 76.57523062 -241.34459709 72.43719798 -232.3125 68.3125 C-231.67282288 68.02006409 -231.03314575 67.72762817 -230.37408447 67.42633057 C-187.08271322 47.64168866 -143.01173985 28.83880531 -97.3125 15.3125 C-96.25562988 14.99877441 -95.19875977 14.68504883 -94.10986328 14.36181641 C-81.26465165 10.60410685 -68.31940288 7.55671913 -55.1875 5 C-53.94379639 4.75741455 -52.70009277 4.5148291 -51.41870117 4.26489258 C-34.10467466 1.01226086 -17.58729105 -0.05974889 0 0 Z " fill="#DF9B4F" transform="translate(570.3125,162.6875)"/>
<path d="M0 0 C0.48259277 0.46728516 0.96518555 0.93457031 1.46240234 1.41601562 C2.56084761 2.47829383 3.66600046 3.53365737 4.77587891 4.58398438 C34.51665502 32.76851162 56.74263972 71.09041447 58.3359375 112.76171875 C59.1373804 146.99510307 49.66136208 181.16711577 28.79370117 208.89697266 C26.86281086 213.9473682 29.52964713 220.05295135 31.0234375 224.99609375 C31.43528455 226.38040294 31.8463832 227.76493495 32.25683594 229.1496582 C32.47287476 229.87448395 32.68891357 230.59930969 32.91149902 231.34609985 C44.84518174 271.62635251 52.45011172 312.89134271 55.84375 354.77020264 C56.03429488 357.102591 56.23179886 359.43433694 56.4296875 361.76611328 C62.8319444 437.90680305 62.8319444 437.90680305 47.01953125 468.921875 C46.7167627 469.52580078 46.41399414 470.12972656 46.10205078 470.75195312 C41.25881916 480.25894245 35.12672688 488.03873962 28.01953125 495.921875 C26.80330078 497.30246094 26.80330078 497.30246094 25.5625 498.7109375 C17.95209247 507.29371396 10.03668155 514.82040801 1.01953125 521.921875 C0.42946289 522.38835449 -0.16060547 522.85483398 -0.76855469 523.33544922 C-19.17184506 537.81960831 -38.54254556 550.87477792 -58.38427734 563.29443359 C-60.87589397 564.85632154 -63.36105997 566.4278762 -65.84375 568.00390625 C-70.5479015 570.98949516 -75.26124661 573.9601696 -79.98046875 576.921875 C-80.78210449 577.42509277 -81.58374023 577.92831055 -82.40966797 578.44677734 C-172.04685815 634.60053933 -264.87861734 679.19328948 -389.91796875 682.109375 C-391.26684677 682.10846863 -391.26684677 682.10846863 -392.64297485 682.10754395 C-459.96078013 681.98635579 -551.86107319 676.74584728 -602.98046875 626.921875 C-603.86734375 626.07625 -604.75421875 625.230625 -605.66796875 624.359375 C-606.43109375 623.555 -607.19421875 622.750625 -607.98046875 621.921875 C-608.48707031 621.42171875 -608.99367188 620.9215625 -609.515625 620.40625 C-631.62805279 597.23605231 -632.1387023 565.06444257 -632.1484375 535.0234375 C-632.15166123 532.66539491 -632.15502609 530.3073525 -632.15852356 527.9493103 C-632.16449826 523.00184672 -632.16636571 518.05440053 -632.16577148 513.10693359 C-632.16569098 508.11340655 -632.17251195 503.11997272 -632.1862793 498.12646484 C-632.26534589 468.99763776 -632.0859483 439.98400825 -629.98046875 410.921875 C-629.90476654 409.87161133 -629.82906433 408.82134766 -629.75106812 407.73925781 C-629.3294632 402.1028943 -628.81462615 396.48101393 -628.23046875 390.859375 C-628.14776733 390.03944061 -628.06506592 389.21950623 -627.9798584 388.37472534 C-625.38729146 362.75607044 -622.07914064 337.19949075 -617.81640625 311.8046875 C-617.63295654 310.7019902 -617.44950684 309.59929291 -617.26049805 308.46318054 C-616.37401044 303.14418172 -615.46793382 297.83021491 -614.52050781 292.52172852 C-609.19226872 261.70033872 -613.68933308 239.88122754 -626.37207031 211.84570312 C-636.19677734 190.12792969 -636.19677734 190.12792969 -639.54296875 179.546875 C-639.77008545 178.82935059 -639.99720215 178.11182617 -640.23120117 177.37255859 C-648.01535453 151.36084054 -645.73246724 122.89066725 -632.98046875 98.921875 C-627.71619642 89.76516402 -621.01216433 81.75494818 -613.98046875 73.921875 C-613.26246094 73.11878906 -612.54445313 72.31570313 -611.8046875 71.48828125 C-601.93127626 61.05705017 -589.37015956 53.02602603 -576.98046875 45.921875 C-576.32046875 45.54111816 -575.66046875 45.16036133 -574.98046875 44.76806641 C-544.31392857 27.23341651 -512.14503062 11.96016804 -479.82678223 -2.26403809 C-478.03488959 -3.05412946 -476.24543088 -3.8497337 -474.45605469 -4.64550781 C-403.04316022 -36.38232739 -327.51203132 -69.46165583 -248.98046875 -77.078125 C-248.27277344 -77.14870117 -247.56507813 -77.21927734 -246.8359375 -77.29199219 C-162.0409812 -85.32117392 -62.67426939 -59.33049852 0 0 Z M-274.98046875 -41.078125 C-276.74704834 -40.73201172 -276.74704834 -40.73201172 -278.54931641 -40.37890625 C-341.48319725 -27.92881756 -400.97241317 -1.69378837 -458.98046875 24.921875 C-459.79215515 25.2941925 -460.60384155 25.66651001 -461.44012451 26.05010986 C-471.14143915 30.50226647 -480.83195532 34.97759166 -490.51686096 39.46531677 C-499.43002505 43.59512584 -508.3500198 47.7101105 -517.26998901 51.82519531 C-521.45365065 53.7553817 -525.63697412 55.68630065 -529.8203125 57.6171875 C-531.21996901 58.26318727 -532.61962702 58.90918377 -534.01928711 59.55517578 C-534.99647705 60.00618652 -535.97366699 60.45719727 -536.98046875 60.921875 C-536.98046875 61.251875 -536.98046875 61.581875 -536.98046875 61.921875 C-536.4259201 61.92996185 -535.87137146 61.93804871 -535.30001831 61.94638062 C-496.38174713 62.52334746 -457.66325707 63.34101849 -418.98046875 67.921875 C-417.03257604 68.13823661 -415.08466033 68.35439128 -413.13671875 68.5703125 C-371.90877859 73.33412779 -329.78593127 83.96885987 -292.25146484 101.84130859 C-290.11211164 102.85923778 -287.96333422 103.85429082 -285.8125 104.84765625 C-271.44863134 111.61621027 -257.99721284 120.54571476 -245.98046875 130.921875 C-245.2121875 131.58058594 -244.44390625 132.23929688 -243.65234375 132.91796875 C-241.04851938 135.20681437 -238.50756084 137.54848158 -235.98046875 139.921875 C-235.44373535 140.42460937 -234.90700195 140.92734375 -234.35400391 141.4453125 C-220.74584593 154.29639419 -210.60857551 168.34891087 -201.98046875 184.921875 C-201.66094238 185.5190332 -201.34141602 186.11619141 -201.01220703 186.73144531 C-196.85861367 194.56095794 -194.03164383 202.45240447 -191.66796875 210.984375 C-191.4253833 211.85787598 -191.18279785 212.73137695 -190.93286133 213.63134766 C-187.75067559 225.78641981 -186.63171783 237.81968139 -186.73046875 250.359375 C-186.73868652 251.63490234 -186.7469043 252.91042969 -186.75537109 254.22460938 C-187.18423714 290.28624863 -200.79905554 322.17581832 -225.98046875 347.921875 C-227.0870089 348.86345516 -228.2064964 349.79008285 -229.33984375 350.69921875 C-230.21125 351.43269531 -231.08265625 352.16617187 -231.98046875 352.921875 C-231.98046875 353.581875 -231.98046875 354.241875 -231.98046875 354.921875 C-230.22811797 356.00881423 -228.42539425 357.01481771 -226.60546875 357.984375 C-221.1813807 361.05377071 -216.78303593 364.47373095 -212.2734375 368.75390625 C-210.26244272 370.65527269 -208.19623473 372.37540625 -206.04296875 374.109375 C-179.27515988 397.53120776 -164.57344122 437.5244866 -160.98046875 471.921875 C-160.46166953 479.80946347 -160.49542679 487.70849024 -160.54296875 495.609375 C-160.5456778 496.66536896 -160.54838684 497.72136292 -160.55117798 498.80935669 C-160.61097331 514.17035616 -161.09818769 528.97745059 -164.98046875 543.921875 C-165.17302246 544.69821289 -165.36557617 545.47455078 -165.56396484 546.27441406 C-166.81889244 551.23751119 -168.29607004 556.08854507 -169.98046875 560.921875 C-170.398125 562.12199219 -170.81578125 563.32210937 -171.24609375 564.55859375 C-176.68217149 579.00793832 -184.4568927 592.47834148 -191.98046875 605.921875 C-186.89870385 604.13499425 -182.37859157 601.41449885 -177.73046875 598.734375 C-176.35967163 597.94740234 -176.35967163 597.94740234 -174.96118164 597.14453125 C-164.53880864 591.13321058 -154.2370287 584.92170837 -143.9375 578.703125 C-141.22713429 577.07046085 -138.5117398 575.44674219 -135.79296875 573.828125 C-123.72257127 566.63791305 -111.78504913 559.24668044 -99.89746094 551.75830078 C-97.21174853 550.06747983 -94.52214864 548.38301753 -91.83203125 546.69921875 C-79.92248087 539.21249543 -68.19079237 531.46507178 -56.48046875 523.671875 C-55.33378723 522.91005417 -55.33378723 522.91005417 -54.16394043 522.13284302 C-34.97870587 509.3906514 -34.97870587 509.3906514 -16.73046875 495.359375 C-15.72681274 494.53397217 -15.72681274 494.53397217 -14.70288086 493.69189453 C-12.78874116 492.10967455 -10.88282815 490.51822765 -8.98046875 488.921875 C-8.01753906 488.11621094 -7.05460938 487.31054688 -6.0625 486.48046875 C0.04928908 481.18358488 5.11368904 475.34073397 10.01953125 468.921875 C10.94572266 467.75398437 10.94572266 467.75398437 11.890625 466.5625 C29.22324043 443.55528665 28.64902255 416.84675315 27.26953125 389.484375 C27.22662964 388.63137817 27.18372803 387.77838135 27.13952637 386.89953613 C24.27096532 331.27918839 16.71055752 275.28380958 -2.89819336 222.8425293 C-5.40468931 215.81125304 -6.60738222 208.81705862 -3.36328125 201.82421875 C-2.63217761 200.49059002 -1.87852969 199.16912876 -1.10546875 197.859375 C-0.70271729 197.13459961 -0.29996582 196.40982422 0.11499023 195.66308594 C2.17851147 191.9834775 4.34474261 188.37348599 6.5625 184.78515625 C13.22703677 173.95399442 18.02677273 162.99841173 22.01953125 150.921875 C22.25961914 150.22723145 22.49970703 149.53258789 22.74707031 148.81689453 C31.83434746 121.72434917 26.05981568 91.18371664 14.06787109 66.02001953 C-4.07362376 29.71168073 -39.96740417 5.22076102 -74.98046875 -13.078125 C-76.09711914 -13.66207031 -76.09711914 -13.66207031 -77.23632812 -14.2578125 C-97.39644052 -24.64279693 -119.02415952 -30.74799965 -140.98046875 -36.078125 C-141.90069824 -36.30628906 -142.82092773 -36.53445312 -143.76904297 -36.76953125 C-157.39929486 -40.1332458 -171.0203101 -42.5666905 -184.98046875 -44.078125 C-185.79612305 -44.17311279 -186.61177734 -44.26810059 -187.45214844 -44.3659668 C-216.04620243 -47.25823293 -246.83153601 -46.92681482 -274.98046875 -41.078125 Z M-602.08203125 111.5390625 C-610.87433647 122.57467194 -613.54279277 133.13891348 -613.41796875 147.109375 C-613.40967041 148.3061084 -613.40137207 149.5028418 -613.39282227 150.73583984 C-613.22048893 159.76954082 -612.2268834 167.43050214 -608.98046875 175.921875 C-608.54089844 177.11683594 -608.10132813 178.31179688 -607.6484375 179.54296875 C-604.95294117 186.5560457 -601.79631996 193.35311215 -598.58984375 200.14453125 C-598.13344009 201.11329948 -598.13344009 201.11329948 -597.66781616 202.10163879 C-596.14003042 205.34090101 -594.60190938 208.57444899 -593.04345703 211.79907227 C-578.46686689 242.22356895 -579.01283861 272.21892773 -584.98046875 304.921875 C-585.52274505 307.97186459 -586.05847515 311.02299348 -586.59375 314.07421875 C-586.73575836 314.88329681 -586.87776672 315.69237488 -587.02407837 316.52597046 C-587.31826401 318.202072 -587.61236056 319.87818919 -587.90637207 321.55432129 C-588.35588726 324.11175603 -588.80819256 326.66868661 -589.26074219 329.22558594 C-591.41453584 341.43638454 -593.41062857 353.66638191 -595.29296875 365.921875 C-595.41589294 366.71782074 -595.53881714 367.51376648 -595.66546631 368.33383179 C-600.81506744 401.77145044 -602.32065518 434.55876862 -602.04248047 468.34375 C-601.98935876 474.87495894 -601.96069104 481.4061197 -601.93798828 487.9375 C-601.90532492 497.25630674 -601.85616478 506.57489699 -601.79174709 515.89353943 C-601.75560741 521.16422427 -601.72544531 526.43477589 -601.71029663 531.70556641 C-601.69517288 536.75063873 -601.6605108 541.79524179 -601.61234856 546.84010315 C-601.59760123 548.71623182 -601.58942238 550.59242625 -601.5885334 552.46861267 C-601.57033806 572.35830849 -598.45884192 589.72376506 -584.24609375 604.77734375 C-548.01638569 639.07063638 -487.51630365 644.94050273 -439.98046875 648.921875 C-438.38356201 649.06544434 -438.38356201 649.06544434 -436.75439453 649.21191406 C-425.47566109 650.10939236 -414.2034597 650.07332487 -402.89550781 650.05224609 C-399.5149274 650.0469292 -396.13448241 650.05219674 -392.75390625 650.05859375 C-382.00207791 650.06256369 -371.26682999 649.94156387 -360.5234375 649.49609375 C-359.62246338 649.45996979 -358.72148926 649.42384583 -357.79321289 649.3866272 C-347.76253747 648.91880468 -337.88238584 647.54202076 -327.98046875 645.921875 C-327.16578125 645.79474121 -326.35109375 645.66760742 -325.51171875 645.53662109 C-288.1243522 639.56587079 -255.58797733 623.51046714 -227.98046875 597.921875 C-227.09101562 597.13103516 -227.09101562 597.13103516 -226.18359375 596.32421875 C-208.75022191 580.09457973 -198.96743351 557.43848876 -193.73046875 534.671875 C-193.56699951 533.96361572 -193.40353027 533.25535645 -193.23510742 532.52563477 C-190.74486738 520.99615539 -190.74080151 509.28899187 -190.73046875 497.546875 C-190.72946167 496.75084869 -190.72845459 495.95482239 -190.72741699 495.13467407 C-190.73818664 482.52199247 -191.33723292 470.29495305 -193.98046875 457.921875 C-194.18929687 456.90673828 -194.18929687 456.90673828 -194.40234375 455.87109375 C-200.85637384 425.57300805 -220.76775194 397.73709688 -246.68359375 380.87890625 C-252.66735319 377.3269353 -258.77788737 374.07295705 -264.98046875 370.921875 C-265.85703125 370.46425781 -266.73359375 370.00664063 -267.63671875 369.53515625 C-271.12706226 367.58759434 -271.12706226 367.58759434 -274.98046875 366.921875 C-276.90735641 361.59459734 -277.9113134 356.4136241 -275.98046875 350.921875 C-272.71168116 347.14929577 -269.08160449 344.51071936 -264.91796875 341.796875 C-240.38941694 325.31110438 -223.99258088 300.83958398 -217.98046875 271.921875 C-214.32342808 248.78728605 -217.52560138 225.27065851 -226.98046875 203.921875 C-227.76744141 202.13716797 -227.76744141 202.13716797 -228.5703125 200.31640625 C-235.33231099 185.98096946 -244.86265182 174.10079859 -255.98046875 162.921875 C-256.45178223 162.4465332 -256.9230957 161.97119141 -257.40869141 161.48144531 C-305.61611302 113.55907628 -382.70615075 101.98837345 -447.35546875 94.734375 C-448.05141144 94.65556091 -448.74735413 94.57674683 -449.46438599 94.49554443 C-454.63156744 93.9168569 -459.80331631 93.40279804 -464.98046875 92.921875 C-465.92049744 92.83360443 -466.86052612 92.74533386 -467.82904053 92.65438843 C-483.82033759 91.1893298 -499.71237826 90.57658442 -515.76904297 90.60620117 C-519.37497412 90.60939226 -522.98010479 90.5856517 -526.5859375 90.56054688 C-551.65650462 90.49274986 -583.88484519 91.58304061 -602.08203125 111.5390625 Z " fill="#171A1C" transform="translate(792.98046875,208.078125)"/>
<path d="M0 0 C1.13489868 -0.00744736 1.13489868 -0.00744736 2.29272461 -0.01504517 C4.81063748 -0.02970962 7.32848686 -0.03648416 9.84643555 -0.04199219 C11.14482392 -0.04623325 11.14482392 -0.04623325 12.46944237 -0.05056 C17.07126548 -0.06558825 21.6730571 -0.07478815 26.27490234 -0.07910156 C30.04648703 -0.08345172 33.8178385 -0.09720156 37.58935547 -0.12011719 C78.04489348 -0.36108858 78.04489348 -0.36108858 94.6706543 3.16113281 C95.75870361 3.38559082 96.84675293 3.61004883 97.96777344 3.84130859 C100.52969541 4.42639648 103.02956372 5.09285398 105.5456543 5.84863281 C106.83705322 6.22991333 106.83705322 6.22991333 108.15454102 6.61889648 C128.83816939 13.04478475 145.5990503 26.31601935 155.8503418 45.48925781 C165.97324914 65.35664605 169.16018576 88.69200618 162.6706543 110.16113281 C155.32873191 132.4768653 140.66058528 150.33978234 119.6706543 161.16113281 C102.00380097 169.5175825 83.39230208 171.79368632 64.06518555 171.72753906 C62.16094157 171.73279268 60.2567002 171.73907539 58.35246277 171.74632263 C54.40363108 171.75662085 50.45516229 171.75231048 46.50634766 171.73754883 C41.46163132 171.72022607 36.41803981 171.74407659 31.37344837 171.77903843 C27.45878142 171.80102698 23.54438434 171.79956992 19.62967491 171.79127312 C17.76903726 171.79045729 15.90837908 171.7972496 14.04780006 171.81204414 C11.45238546 171.8295531 8.85900617 171.81490502 6.26367188 171.79223633 C5.13131859 171.80977463 5.13131859 171.80977463 3.97608948 171.82766724 C-1.85376478 171.72457365 -5.90329015 169.9675029 -10.3293457 166.16113281 C-15.73548244 159.8124545 -14.90264217 152.49578733 -14.86279297 144.50854492 C-14.86985734 143.01972094 -14.87860454 141.53090414 -14.88890076 140.042099 C-14.91134312 136.01319514 -14.90846778 131.98468505 -14.89957929 127.9557426 C-14.89445933 124.58831016 -14.90176986 121.22095106 -14.90905136 117.85352618 C-14.92603295 109.90936527 -14.92250092 101.96539655 -14.90576172 94.02124023 C-14.88882833 85.8316239 -14.90469532 77.64254011 -14.9369846 69.45298189 C-14.96368646 62.41327474 -14.97095533 55.37373332 -14.96246952 48.33398062 C-14.95754368 44.13297896 -14.95973757 39.93229793 -14.98025703 35.73133659 C-14.99862471 31.78220349 -14.99264311 27.83383667 -14.96805763 23.88474464 C-14.96305373 22.43757382 -14.96652875 20.99034447 -14.97920609 19.54322052 C-15.07834323 7.25243745 -15.07834323 7.25243745 -11.91490173 3.31593323 C-7.87960181 -0.04708264 -5.06729235 0.0078978 0 0 Z " fill="#16191B" transform="translate(326.329345703125,595.8388671875)"/>
<path d="M0 0 C1.10305481 -0.00744736 1.10305481 -0.00744736 2.22839355 -0.01504517 C4.67294242 -0.02969955 7.11742604 -0.03648024 9.56201172 -0.04199219 C11.26960246 -0.04774848 12.9771932 -0.05350615 14.68478394 -0.05926514 C18.27781474 -0.06978952 21.87082313 -0.0756203 25.46386719 -0.07910156 C30.02484842 -0.08453753 34.58552368 -0.10845258 39.14640999 -0.13707352 C42.68306268 -0.15590005 46.21964532 -0.16091637 49.75634384 -0.16243744 C51.43453488 -0.16542834 53.11272577 -0.17333316 54.79086685 -0.18662262 C79.50594048 -0.36809494 102.86376606 5.19197769 121.03857422 23.07519531 C134.10303257 36.76894575 141.47215026 56.11602864 141.28393555 74.9375 C140.4902389 95.9792244 131.21263059 114.57016154 115.99169922 128.91113281 C98.98634215 143.61287226 78.5780115 147.64619433 56.74560547 147.59472656 C55.02977799 147.59929878 53.31395234 147.60460741 51.59812927 147.61061096 C48.02880331 147.61947959 44.45970192 147.61718611 40.89038086 147.60717773 C36.32521203 147.59562086 31.76080906 147.61603305 27.1957407 147.64509487 C23.6637637 147.66345246 20.13197115 147.6631666 16.59995842 147.65745735 C14.91629896 147.65730448 13.23262673 147.66332029 11.54901314 147.67574883 C9.19942077 147.69067154 6.85125737 147.67997873 4.50170898 147.6628418 C3.47066544 147.67734375 3.47066544 147.67734375 2.41879272 147.69213867 C-2.53104147 147.61675931 -5.30150886 146.21927572 -9.13330078 143.16113281 C-13.05824688 138.81186822 -14.25258478 135.77955819 -14.28720093 129.98136902 C-14.29580139 128.90890427 -14.30440186 127.83643951 -14.31326294 126.73147583 C-14.31752289 125.5547934 -14.32178284 124.37811096 -14.32617188 123.16577148 C-14.33434937 121.92651413 -14.34252686 120.68725677 -14.35095215 119.41044617 C-14.37581217 115.30000125 -14.39247529 111.18959309 -14.40673828 107.07910156 C-14.41209912 105.66301276 -14.41747663 104.24692402 -14.42287064 102.83083534 C-14.44449348 96.93997549 -14.46322996 91.04911835 -14.47449303 85.15822887 C-14.49073232 76.7207932 -14.5239157 68.28381799 -14.58089387 59.84655589 C-14.61960914 53.91099422 -14.63912749 47.97555564 -14.64441359 42.03987104 C-14.64806464 38.49600307 -14.66005857 34.95262659 -14.69251633 31.40889549 C-14.72822171 27.45401913 -14.72422199 23.49971976 -14.71679688 19.54467773 C-14.73320221 18.37406799 -14.74960754 17.20345825 -14.76651001 15.99737549 C-14.69839601 7.14647185 -14.69839601 7.14647185 -11.72183228 3.44966125 C-7.76527246 -0.04834512 -5.07519835 0.00813932 0 0 Z " fill="#16191B" transform="translate(326.13330078125,393.8388671875)"/>
<path d="M0 0 C84.64850427 0 84.64850427 0 104.3125 17.5625 C114.31016091 28.26980699 117.61794057 41.82564964 117.24609375 56.03515625 C116.35609681 70.37399592 109.55566339 83.36440236 99 93 C84.56796031 104.56370003 67.84953779 106.16643677 50 106.09765625 C48.09541016 106.09614563 48.09541016 106.09614563 46.15234375 106.09460449 C41.43488657 106.08939479 36.71744233 106.07543359 32 106.0625 C21.44 106.041875 10.88 106.02125 0 106 C0 71.02 0 36.04 0 0 Z " fill="#F9F9F9" transform="translate(343,628)"/>
<path d="M0 0 C14.23125 -0.12375 14.23125 -0.12375 28.75 -0.25 C33.2064502 -0.30462402 33.2064502 -0.30462402 37.75292969 -0.36035156 C40.1425708 -0.37204844 42.53221997 -0.38223789 44.921875 -0.390625 C46.13439941 -0.41108887 47.34692383 -0.43155273 48.59619141 -0.45263672 C61.74612963 -0.45794983 71.65597488 2.96647594 81.125 12.03515625 C86.0530201 17.17153015 88.92298047 22.20568189 91 29 C91.28617188 29.93392578 91.28617188 29.93392578 91.578125 30.88671875 C93.90500128 42.54264532 91.43042538 53.81574637 85.25 63.8125 C78.07591981 73.70593228 68.52111492 79.01190076 56.68299866 81.57810974 C51.57926635 82.38065019 46.4628471 82.24240362 41.30859375 82.1953125 C40.2561145 82.19329834 39.20363525 82.19128418 38.1192627 82.18920898 C34.22529682 82.17882395 30.33139357 82.15090199 26.4375 82.125 C17.713125 82.08375 8.98875 82.0425 0 82 C0 54.94 0 27.88 0 0 Z " fill="#F9F9F9" transform="translate(343,427)"/>
<path d="M0 0 C0.886875 0.12375 1.77375 0.2475 2.6875 0.375 C2.6875 0.705 2.6875 1.035 2.6875 1.375 C1.0375 1.375 -0.6125 1.375 -2.3125 1.375 C-2.6425 2.365 -2.9725 3.355 -3.3125 4.375 C-4.3025 4.87 -4.3025 4.87 -5.3125 5.375 C-6.38515964 8.59297893 -6.45051985 10.93175496 -6.47071838 14.31645203 C-6.4805072 15.55745667 -6.49029602 16.7984613 -6.50038147 18.07707214 C-6.50628564 19.45461998 -6.51209608 20.83216821 -6.51782227 22.2097168 C-6.52740111 23.65841959 -6.53741119 25.10711959 -6.54782104 26.55581665 C-6.57487551 30.49144603 -6.59588214 34.42708741 -6.61582303 38.3627584 C-6.63767923 42.47475612 -6.66506971 46.58671682 -6.69187927 50.69868469 C-6.74181111 58.48653575 -6.78674812 66.27440735 -6.82990164 74.0622986 C-6.87926981 82.92800381 -6.9341895 91.7936719 -6.98958123 100.65934122 C-7.10340881 118.89785967 -7.21024617 137.13641317 -7.3125 155.375 C-7.6425 155.375 -7.9725 155.375 -8.3125 155.375 C-8.42932081 136.05150616 -8.51748202 116.72808401 -8.57156086 97.40431023 C-8.59733847 88.43185494 -8.63248041 79.45961911 -8.68969727 70.48730469 C-8.73954594 62.66668206 -8.77179424 54.84621837 -8.78294247 47.02544129 C-8.78945882 42.88461832 -8.80476434 38.74425003 -8.84115028 34.60357285 C-8.87513324 30.7046999 -8.88554856 26.80646815 -8.87803841 22.90746117 C-8.87941195 21.47799505 -8.88933153 20.04850711 -8.90852737 18.61916924 C-9.06354117 6.47943459 -9.06354117 6.47943459 -5.98405457 2.50100708 C-3.3125 0.375 -3.3125 0.375 0 0 Z " fill="#000009" transform="translate(320.3125,596.625)"/>
<path d="M0 0 C0.33 0 0.66 0 1 0 C1.57616356 7.32779081 2.14501387 14.65612406 2.70898438 21.98486328 C2.90134412 24.47359819 3.09532605 26.9622083 3.29101562 29.45068359 C3.57336881 33.04492443 3.84972197 36.63958618 4.125 40.234375 C4.21249512 41.33174988 4.29999023 42.42912476 4.39013672 43.55975342 C5.5633037 59.09093811 5.5633037 59.09093811 5 65 C4.01 65.99 4.01 65.99 3 67 C1.59070605 64.18141211 1.96590503 61.90386129 2.03515625 58.75 C2.10954072 52.26131627 1.79257381 45.84480157 1.30859375 39.375 C1.23967926 38.45033936 1.17076477 37.52567871 1.09976196 36.57299805 C0.80905131 32.73999151 0.50926733 28.90773931 0.20629883 25.07568359 C-0.01596677 22.23840251 -0.22907841 19.40053947 -0.44140625 16.5625 C-0.51218887 15.7051123 -0.5829715 14.84772461 -0.65589905 13.96435547 C-1.0155528 9.10850288 -0.88329756 4.79262502 0 0 Z " fill="#2C2D2E" transform="translate(847,554)"/>
<path d="M0 0 C28.93263641 -0.20638953 28.93263641 -0.20638953 43 1 C43 1.99 43 2.98 43 4 C39.37 4 35.74 4 32 4 C32 3.34 32 2.68 32 2 C31.41299316 2.0714624 30.82598633 2.1429248 30.22119141 2.21655273 C23.58227889 2.96049038 17.05080469 3.12043422 10.375 3.0625 C9.37082031 3.05798828 8.36664062 3.05347656 7.33203125 3.04882812 C4.88795529 3.03718967 2.4440118 3.0208424 0 3 C0 2.01 0 1.02 0 0 Z " fill="#3F4142" transform="translate(560,130)"/>
<path d="M0 0 C0.33 0 0.66 0 1 0 C1.19491452 1.45736087 1.38069358 2.91594593 1.5625 4.375 C1.66691406 5.18710937 1.77132812 5.99921875 1.87890625 6.8359375 C2 9 2 9 1 11 C0.86045631 12.43769559 0.77460137 13.88084712 0.71875 15.32421875 C0.68136719 16.18853516 0.64398438 17.05285156 0.60546875 17.94335938 C0.57066406 18.84892578 0.53585938 19.75449219 0.5 20.6875 C0.27068348 26.52657809 -0.05273461 32.22957498 -1 38 C-1.33 38 -1.66 38 -2 38 C-2.05883232 33.72922608 -2.09387308 29.45855861 -2.125 25.1875 C-2.14175781 23.99189453 -2.15851563 22.79628906 -2.17578125 21.56445312 C-2.21623057 14.14200357 -1.64462645 7.24321669 0 0 Z " fill="#272829" transform="translate(151,330)"/>
<path d="M0 0 C0.33 0 0.66 0 1 0 C1.33 3.63 1.66 7.26 2 11 C1.67 11 1.34 11 1 11 C0.67 19.25 0.34 27.5 0 36 C-0.33 36 -0.66 36 -1 36 C-1.024759 31.51595436 -1.04288799 27.03194519 -1.05493164 22.54785156 C-1.05995365 21.02310493 -1.0667725 19.49836309 -1.07543945 17.97363281 C-1.08759849 15.77928481 -1.09324968 13.5850006 -1.09765625 11.390625 C-1.10289307 10.07094727 -1.10812988 8.75126953 -1.11352539 7.39160156 C-1.02311329 4.69051582 -0.81881355 2.5499384 0 0 Z " fill="#2C2E2F" transform="translate(849,307)"/>
<path d="M0 0 C0.66 0 1.32 0 2 0 C0.65150163 4.35970831 -1.04907846 8.31341438 -3.125 12.375 C-3.66382813 13.43460937 -4.20265625 14.49421875 -4.7578125 15.5859375 C-5.16773438 16.38257813 -5.57765625 17.17921875 -6 18 C-7.37095624 14.30962722 -6.60010967 12.29116165 -5.0625 8.75 C-4.68222656 7.85796875 -4.30195312 6.9659375 -3.91015625 6.046875 C-3.60980469 5.37140625 -3.30945313 4.6959375 -3 4 C-2.34 4 -1.68 4 -1 4 C-0.67 2.68 -0.34 1.36 0 0 Z " fill="#2D2D2E" transform="translate(836,386)"/>
<path d="M0 0 C0 0.66 0 1.32 0 2 C-0.99 2 -1.98 2 -3 2 C-3 2.66 -3 3.32 -3 4 C-4.55966218 4.508783 -6.12289241 5.00663469 -7.6875 5.5 C-8.99267578 5.91765625 -8.99267578 5.91765625 -10.32421875 6.34375 C-12.99391677 6.99850805 -15.26396684 7.11831495 -18 7 C-14.87351251 4.91567501 -11.94269132 3.71441389 -8.4375 2.375 C-7.28121094 1.92898437 -6.12492187 1.48296875 -4.93359375 1.0234375 C-2 0 -2 0 0 0 Z " fill="#2A2A2C" transform="translate(422,162)"/>
<path d="M0 0 C0.66 0.33 1.32 0.66 2 1 C0.21475351 2.19713017 -1.5784028 3.38247279 -3.375 4.5625 C-4.87160156 5.55443359 -4.87160156 5.55443359 -6.3984375 6.56640625 C-7.25695312 7.03949219 -8.11546875 7.51257813 -9 8 C-9.66 7.67 -10.32 7.34 -11 7 C-9.68 5.02 -8.36 3.04 -7 1 C-6.34 1.66 -5.68 2.32 -5 3 C-4.21625 2.484375 -3.4325 1.96875 -2.625 1.4375 C-1.75875 0.963125 -0.8925 0.48875 0 0 Z " fill="#E7AC57" transform="translate(612,806)"/>
<path d="M0 0 C3.3 0 6.6 0 10 0 C10 0.66 10 1.32 10 2 C11.32 2 12.64 2 14 2 C14 2.66 14 3.32 14 4 C12.22773547 3.71715982 10.457212 3.42339502 8.6875 3.125 C7.20830078 2.88136719 7.20830078 2.88136719 5.69921875 2.6328125 C3 2 3 2 0 0 Z " fill="#2D2E2F" transform="translate(261,871)"/>
<path d="M0 0 C0.33 1.32 0.66 2.64 1 4 C1.66 4 2.32 4 3 4 C3.144375 4.928125 3.28875 5.85625 3.4375 6.8125 C3.92100111 10.00725111 3.92100111 10.00725111 5 13 C4.34 13.66 3.68 14.32 3 15 C2.30151736 13.06643218 1.61655186 11.12797702 0.9375 9.1875 C0.55464844 8.10855469 0.17179688 7.02960938 -0.22265625 5.91796875 C-1 3 -1 3 0 0 Z " fill="#2E2F30" transform="translate(154,383)"/>
<path d="M0 0 C0.99 0 1.98 0 3 0 C2.25 6.625 2.25 6.625 0 10 C-0.74926071 6.33694766 -1.2380014 3.57644848 0 0 Z " fill="#313233" transform="translate(844,360)"/>
<path d="M0 0 C2.35333796 4.70667591 2.17102038 6.8693886 2 12 C1.01 12 0.02 12 -1 12 C-0.67 8.04 -0.34 4.08 0 0 Z " fill="#343536" transform="translate(181,483)"/>
<path d="M0 0 C2.10814567 4.21629134 2.17700355 6.39790775 2 11 C1.01 11 0.02 11 -1 11 C-0.67 7.37 -0.34 3.74 0 0 Z " fill="#323335" transform="translate(172,540)"/>
<path d="M0 0 C0.33 0 0.66 0 1 0 C1.33872513 1.41538717 1.67074624 2.83237963 2 4.25 C2.185625 5.03890625 2.37125 5.8278125 2.5625 6.640625 C3 9 3 9 3 13 C2.34 13 1.68 13 1 13 C1 11.35 1 9.7 1 8 C0.34 8 -0.32 8 -1 8 C-0.67 5.36 -0.34 2.72 0 0 Z " fill="#38393A" transform="translate(834,473)"/>
<path d="M0 0 C3.9492568 0.55105909 7.34920174 1.38935371 11 3 C11 3.33 11 3.66 11 4 C3.57142857 4.28571429 3.57142857 4.28571429 0 2 C0 1.34 0 0.68 0 0 Z " fill="#2F3031" transform="translate(690,150)"/>
<path d="M0 0 C0 0.33 0 0.66 0 1 C-1.65 1 -3.3 1 -5 1 C-5.33 1.99 -5.66 2.98 -6 4 C-6.99 4.495 -6.99 4.495 -8 5 C-8.33 5.99 -8.66 6.98 -9 8 C-9.66 8 -10.32 8 -11 8 C-8.71283018 1.49036283 -7.11151757 -0.47410117 0 0 Z " fill="#0B0B12" transform="translate(323,597)"/>
<path d="M0 0 C0 4.38968456 -2.12805101 5.76905739 -5 9 C-5.66 8.67 -6.32 8.34 -7 8 C-4.69 5.36 -2.38 2.72 0 0 Z " fill="#E7A753" transform="translate(578,544)"/>
<path d="M0 0 C0.99 0 1.98 0 3 0 C3.1953125 6.0546875 3.1953125 6.0546875 3 8 C2.34 8.66 1.68 9.32 1 10 C0.67 6.7 0.34 3.4 0 0 Z " fill="#221E1E" transform="translate(604,444)"/>
<path d="M0 0 C0.33 0 0.66 0 1 0 C1.22174933 1.45635371 1.42698698 2.91522956 1.625 4.375 C1.74101562 5.18710937 1.85703125 5.99921875 1.9765625 6.8359375 C1.98429688 7.55007813 1.99203125 8.26421875 2 9 C1.34 9.66 0.68 10.32 0 11 C-0.33 10.67 -0.66 10.34 -1 10 C-0.91036938 8.30858344 -0.75422324 6.62040398 -0.5625 4.9375 C-0.46066406 4.01839844 -0.35882813 3.09929687 -0.25390625 2.15234375 C-0.17011719 1.44207031 -0.08632812 0.73179687 0 0 Z " fill="#333435" transform="translate(151,330)"/>
<path d="M0 0 C0 0.99 0 1.98 0 3 C-2.95664519 4.4783226 -5.74229737 4.06032783 -9 4 C-3 0 -3 0 0 0 Z " fill="#2E2F30" transform="translate(306,210)"/>
<path d="M0 0 C0.99 0 1.98 0 3 0 C2.45276317 3.37462715 1.9451 5.08235 0 8 C-0.79953138 4.71303767 -1.09658936 3.28976808 0 0 Z " fill="#2C2D2F" transform="translate(840,373)"/>
<path d="M0 0 C1.65 0.33 3.3 0.66 5 1 C5 1.99 5 2.98 5 4 C3.35 3.67 1.7 3.34 0 3 C0 2.01 0 1.02 0 0 Z " fill="#252627" transform="translate(237,861)"/>
<path d="M0 0 C0.66 0.33 1.32 0.66 2 1 C2 2.65 2 4.3 2 6 C1.34 6 0.68 6 0 6 C-0.33 6.66 -0.66 7.32 -1 8 C-1.125 2.25 -1.125 2.25 0 0 Z " fill="#E5A453" transform="translate(605,486)"/>
</svg>
